<?xml version="1.0" standalone="no"?>
<!DOCTYPE svg PUBLIC "-//W3C//DTD SVG 20010904//EN"
 "http://www.w3.org/TR/2001/REC-SVG-20010904/DTD/svg10.dtd">
<svg version="1.0" xmlns="http://www.w3.org/2000/svg"
 width="237.000000pt" height="72.000000pt" viewBox="0 0 237.000000 72.000000"
 preserveAspectRatio="xMidYMid meet">

<g transform="translate(0.000000,72.000000) scale(0.100000,-0.100000)"
fill="#000000" stroke="none">
<path d="M180 595 c-140 -80 -140 -80 -140 -233 0 -81 5 -136 13 -151 12 -23
173 -123 231 -144 25 -9 40 -4 123 39 52 27 111 63 131 80 l37 32 3 122 c4
143 -4 169 -62 209 -86 58 -175 101 -208 101 -22 0 -65 -19 -128 -55z m253
-10 c137 -83 131 -75 135 -214 3 -90 0 -126 -11 -147 -20 -38 -208 -148 -251
-148 -35 1 -198 92 -233 131 -21 22 -23 33 -23 151 1 96 4 132 15 146 26 34
207 135 243 136 22 0 62 -17 125 -55z"/>
<path d="M395 530 c-3 -6 -41 -10 -83 -10 -94 0 -132 -20 -163 -84 -42 -84 9
-179 105 -197 56 -10 66 -6 66 25 0 20 -6 24 -41 29 -72 10 -106 66 -75 126
20 38 40 44 134 40 60 -3 85 1 111 15 36 19 36 21 -21 51 -17 10 -29 11 -33 5z"/>
<path d="M330 368 c0 -20 8 -37 25 -50 17 -13 25 -28 23 -46 -1 -23 26 -92 36
-92 12 0 45 74 38 84 -5 6 -12 22 -15 36 -7 30 -59 86 -87 93 -17 4 -20 0 -20
-25z"/>
<path d="M795 538 c-108 -38 -151 -189 -80 -283 95 -124 296 -87 324 60 5 28
6 54 2 58 -4 4 -43 7 -87 5 -78 -3 -79 -3 -82 -30 -3 -27 -2 -28 47 -28 59 0
68 -10 38 -38 -36 -34 -74 -44 -118 -32 -76 21 -115 94 -86 163 30 71 123 96
186 49 25 -18 35 -21 51 -12 38 21 17 56 -53 85 -41 17 -98 18 -142 3z"/>
<path d="M1164 436 c-50 -23 -74 -61 -74 -121 0 -58 21 -95 70 -120 60 -31
138 -8 177 51 19 29 21 101 3 134 -29 53 -118 82 -176 56z m109 -73 c20 -19
23 -72 5 -96 -38 -50 -128 -17 -128 48 0 65 72 93 123 48z"/>
<path d="M1854 440 c-31 -13 -72 -66 -80 -105 -8 -45 27 -120 67 -140 35 -19
89 -19 114 -1 15 11 23 11 43 0 48 -25 53 -13 50 120 -3 118 -4 121 -26 124
-13 2 -28 -1 -35 -6 -8 -7 -20 -6 -37 3 -28 16 -65 18 -96 5z m94 -60 c7 0 20
-16 28 -35 13 -31 13 -39 -1 -65 -29 -56 -107 -53 -131 5 -11 26 -11 40 -3 59
13 29 46 47 74 41 11 -3 26 -5 33 -5z"/>
<path d="M1380 428 c0 -7 15 -62 33 -123 l33 -110 34 0 c34 0 35 1 54 68 10
37 22 67 26 67 5 0 18 -31 29 -70 21 -68 23 -70 54 -70 l32 0 33 113 c18 61
32 118 32 125 0 6 -11 12 -24 12 -25 0 -32 -13 -56 -98 -6 -24 -14 -41 -18
-37 -4 3 -16 34 -27 68 -18 57 -23 62 -51 65 -31 3 -32 2 -49 -63 -10 -36 -22
-68 -26 -71 -5 -2 -18 27 -30 66 -20 66 -23 70 -50 70 -17 0 -29 -5 -29 -12z"/>
<path d="M2095 419 c4 -12 27 -68 51 -123 38 -88 42 -103 30 -121 -7 -11 -23
-24 -35 -30 -15 -7 -21 -17 -19 -35 2 -20 8 -24 28 -22 43 5 74 37 102 103 45
109 88 223 88 237 0 7 -13 12 -29 12 -28 0 -31 -4 -56 -80 -15 -44 -30 -80
-33 -80 -4 0 -21 35 -37 78 -29 73 -33 77 -64 80 -30 3 -32 1 -26 -19z"/>
</g>
</svg>
